<svg xmlns="http://www.w3.org/2000/svg" viewBox="0 0 1200 800">
  <defs>
    <linearGradient id="bg" x1="0" y1="0" x2="1" y2="1">
      <stop offset="0%" stop-color="#2a1a12"/>
      <stop offset="100%" stop-color="#080605"/>
    </linearGradient>
    <radialGradient id="shine" cx="0.3" cy="0.25" r="0.7">
      <stop offset="0%" stop-color="#ffddad" stop-opacity="0.4"/>
      <stop offset="100%" stop-color="#ffddad" stop-opacity="0"/>
    </radialGradient>
  </defs>
  <rect width="1200" height="800" fill="url(#bg)"/>
  <rect width="1200" height="800" fill="url(#shine)"/>
  <ellipse cx="600" cy="440" rx="390" ry="230" fill="#f6f0e6"/>
  <ellipse cx="600" cy="440" rx="330" ry="185" fill="#d9d0c2"/>
  <ellipse cx="480" cy="420" rx="130" ry="92" fill="#c05a2a"/>
  <ellipse cx="720" cy="450" rx="150" ry="102" fill="#8b3d1f"/>
  <ellipse cx="610" cy="380" rx="120" ry="80" fill="#ffb35a"/>
  <ellipse cx="845" cy="380" rx="88" ry="70" fill="#2a7f62"/>
  <ellipse cx="335" cy="480" rx="100" ry="72" fill="#d08e35"/>
  <circle cx="552" cy="390" r="20" fill="#f7d48c"/>
  <circle cx="600" cy="360" r="18" fill="#f7d48c"/>
  <circle cx="644" cy="392" r="18" fill="#f7d48c"/>
  <path d="M920 158c-28 42-68 48-80 96-8 28 0 58 18 84-48-18-79-65-79-114 0-54 38-93 141-146z" fill="#ffb35a" opacity="0.85"/>
  <path d="M972 172c-18 28-44 32-52 64-5 18 0 40 12 58-31-12-51-44-51-77 0-36 25-63 91-99z" fill="#c05a2a" opacity="0.9"/>
</svg>
